<?xml version="1.0" encoding="UTF-8" standalone="no"?>
<!-- Created with Inkscape (http://www.inkscape.org/) -->

<svg
   xmlns:dc="http://purl.org/dc/elements/1.1/"
   xmlns:cc="http://creativecommons.org/ns#"
   xmlns:rdf="http://www.w3.org/1999/02/22-rdf-syntax-ns#"
   xmlns:svg="http://www.w3.org/2000/svg"
   xmlns="http://www.w3.org/2000/svg"
   xmlns:sodipodi="http://sodipodi.sourceforge.net/DTD/sodipodi-0.dtd"
   xmlns:inkscape="http://www.inkscape.org/namespaces/inkscape"
   id="svg4187"
   version="1.1"
   inkscape:version="0.91 r13725"
   width="50mm"
   height="50mm"
   viewBox="0 0 177.16535 177.16535"
   sodipodi:docname="hab.svg">
  <metadata
     id="metadata4193">
    <rdf:RDF>
      <cc:Work
         rdf:about="">
        <dc:format>image/svg+xml</dc:format>
        <dc:type
           rdf:resource="http://purl.org/dc/dcmitype/StillImage" />
        <dc:title></dc:title>
      </cc:Work>
    </rdf:RDF>
  </metadata>
  <defs
     id="defs4191" />
  <sodipodi:namedview
     pagecolor="#ffffff"
     bordercolor="#666666"
     borderopacity="1"
     objecttolerance="10"
     gridtolerance="10"
     guidetolerance="10"
     inkscape:pageopacity="0"
     inkscape:pageshadow="2"
     inkscape:window-width="1920"
     inkscape:window-height="1021"
     id="namedview4189"
     showgrid="false"
     units="mm"
     inkscape:document-units="mm"
     fit-margin-top="0"
     fit-margin-left="0"
     fit-margin-right="0"
     fit-margin-bottom="0"
     inkscape:zoom="0.94796503"
     inkscape:cx="-79.633757"
     inkscape:cy="143.11475"
     inkscape:window-x="0"
     inkscape:window-y="0"
     inkscape:window-maximized="1"
     inkscape:current-layer="svg4187" />
  <path
     style="fill:#800000;fill-opacity:1"
     d="m 40.656616,169.82246 c 0,-0.37974 34.46036,-92.268833 34.71272,-92.562003 0.12736,-0.14796 1.09316,0.12543 2.14623,0.60754 6.67439,3.05564 15.77532,3.05711 22.44498,0.004 1.048704,-0.48011 1.947174,-0.83163 1.996604,-0.78114 0.0494,0.0505 7.82485,20.714713 17.2787,45.920493 9.45385,25.20578 17.29616,46.1021 17.42735,46.43627 0.22319,0.56851 -0.2941,0.6069 -8.04431,0.59699 l -8.28284,-0.0106 -4.65237,-5.54441 -4.65238,-5.5444 -22.295674,0 -22.29567,0 -4.75704,5.55499 -4.75703,5.555 -8.13464,0 c -4.47405,0 -8.13463,-0.10457 -8.13463,-0.23238 z m 64.750394,-27.54259 -5.546854,-5.555 -11.11813,0 -11.11812,0 -5.54686,5.555 -5.54685,5.55499 22.21183,0 22.211834,0 -5.54685,-5.55499 z m -5.728584,-17.02465 c 0,-0.44396 -10.7649,-38.990293 -10.93693,-39.162333 -0.0681,-0.0681 -0.43697,0.94571 -0.81967,2.25293 -1.51725,5.182603 -10.11619,36.543763 -10.11619,36.894713 0,0.25976 3.34783,0.37436 10.93639,0.37436 7.31239,0 10.9364,-0.11919 10.9364,-0.35967 z M 17.568666,87.832717 c -2.21642,-1.04768 -6.39883,-5.86062 -9.5568703,-10.99762 C 2.7171957,68.222657 0.00659571,58.473277 5.7099282e-6,48.018567 -0.00399429,42.140097 0.33798571,39.211537 1.6405457,33.957487 c 2.04817,-8.2616 6.28136,-16.32064 11.9706903,-22.789519 2.75821,-3.1361502 4.3203,-4.0601502 6.86001,-4.0578202 2.30807,0.002 3.68193,0.63056 5.22804,2.39149 1.4354,1.6348202 1.76422,2.5431602 1.76422,4.8735302 0,2.49018 -0.54774,3.688409 -2.86987,6.278089 -6.4644,7.20922 -9.78755,15.38567 -10.21482,25.13307 -0.48829,11.13922 2.81544,20.65341 10.02166,28.86071 2.43028,2.76789 3.06303,4.13867 3.06303,6.63574 0,3.85913 -2.75521,6.85892 -6.50796,7.08566 -1.43785,0.0869 -2.38754,-0.0633 -3.38688,-0.53572 z m 136.097354,0.0872 c -2.59986,-1.35216 -3.99265,-3.64358 -3.99265,-6.56867 0,-2.55647 0.55678,-3.77392 2.95003,-6.45042 13.70705,-15.32933 13.69279,-38.76112 -0.0329,-54.14383 -2.36144,-2.64652 -2.9171,-3.869729 -2.9171,-6.421639 0,-4.09612 2.94409,-7.1112402 6.94374,-7.1112402 2.43335,0 3.98824,0.89172 6.74292,3.8670302 14.7522,15.933729 18.0961,41.673739 8.02019,61.736089 -3.14247,6.25703 -9.26908,14.07775 -11.88424,15.17043 -1.50674,0.62956 -4.54797,0.589 -5.82996,-0.0777 z m -26.26726,-14.72146 c -3.00935,-0.90913 -4.86389,-3.18821 -5.08532,-6.24944 -0.18993,-2.62562 0.29704,-4.00406 2.20353,-6.23758 1.94221,-2.27535 3.06435,-4.1727 4.03255,-6.8184 0.60868,-1.66328 0.75217,-2.81704 0.75217,-6.04803 0,-3.23099 -0.14349,-4.38475 -0.75217,-6.04803 -0.95804,-2.61792 -2.12497,-4.60388 -3.93194,-6.69167 -1.80524,-2.08579 -2.372,-3.43911 -2.372,-5.6639 0,-6.10765 7.3164,-9.33781 11.6941,-5.16288 2.14652,2.0471 4.63645,5.58492 6.20122,8.81103 5.35893,11.04858 4.27372,24.41873 -2.78981,34.37152 -3.46994,4.88929 -6.66419,6.73072 -9.95233,5.73738 z m -82.735514,-0.77945 c -1.64235,-0.95343 -4.71799,-4.53422 -6.53034,-7.6029 -3.06606,-5.19148 -4.48553,-10.68814 -4.47231,-17.31829 0.011,-5.5062 1.02298,-9.77511 3.49796,-14.75545 3.51217,-7.06745 7.65035,-10.91588 11.2959,-10.50498 3.71409,0.41863 6.13553,2.94045 6.37078,6.63488 0.16311,2.56175 -0.43626,4.01882 -2.75545,6.69844 -6.01164,6.9459 -5.85317,17.78013 0.36325,24.83434 1.78251,2.02273 2.45825,3.60503 2.45825,5.75616 0,2.12391 -1.12805,4.38595 -2.88386,5.78294 -1.12186,0.89258 -1.67264,1.06817 -3.64547,1.1622 -1.92308,0.0917 -2.56108,-0.0269 -3.69871,-0.68734 z m 40.2288,-7.03545 c -4.51316,-0.98198 -8.6769,-3.91385 -11.31282,-7.96586 -1.87547,-2.88302 -2.71733,-5.84056 -2.71733,-9.54625 0,-4.97172 1.49338,-8.80016 4.77461,-12.24018 3.48229,-3.65082 7.10414,-5.3704 12.06396,-5.72773 5.01938,-0.36162 9.4652,1.28966 13.357204,4.96119 3.80947,3.59366 5.56449,7.68759 5.56449,12.98028 0,5.00492 -1.421,8.59292 -4.8585,12.26763 -4.365114,4.66632 -10.640234,6.62675 -16.871614,5.27092 z"
     id="path4197"
     inkscape:connector-curvature="0" />
</svg>
