<?xml version="1.0" encoding="UTF-8" standalone="no"?>
<!-- Created with Inkscape (http://www.inkscape.org/) -->

<svg
   xmlns:dc="http://purl.org/dc/elements/1.1/"
   xmlns:cc="http://creativecommons.org/ns#"
   xmlns:rdf="http://www.w3.org/1999/02/22-rdf-syntax-ns#"
   xmlns:svg="http://www.w3.org/2000/svg"
   xmlns="http://www.w3.org/2000/svg"
   xmlns:sodipodi="http://sodipodi.sourceforge.net/DTD/sodipodi-0.dtd"
   xmlns:inkscape="http://www.inkscape.org/namespaces/inkscape"
   id="svg4190"
   version="1.1"
   inkscape:version="0.91 r13725"
   width="50mm"
   height="50mm"
   viewBox="0 0 177.16536 177.16536"
   sodipodi:docname="localgps.svg">
  <metadata
     id="metadata4196">
    <rdf:RDF>
      <cc:Work
         rdf:about="">
        <dc:format>image/svg+xml</dc:format>
        <dc:type
           rdf:resource="http://purl.org/dc/dcmitype/StillImage" />
        <dc:title></dc:title>
      </cc:Work>
    </rdf:RDF>
  </metadata>
  <defs
     id="defs4194" />
  <sodipodi:namedview
     pagecolor="#ffffff"
     bordercolor="#666666"
     borderopacity="1"
     objecttolerance="10"
     gridtolerance="10"
     guidetolerance="10"
     inkscape:pageopacity="0"
     inkscape:pageshadow="2"
     inkscape:window-width="1920"
     inkscape:window-height="1021"
     id="namedview4192"
     showgrid="false"
     fit-margin-top="0"
     fit-margin-left="0"
     fit-margin-right="0"
     fit-margin-bottom="0"
     inkscape:document-units="mm"
     units="mm"
     inkscape:zoom="1.6757812"
     inkscape:cx="18.117484"
     inkscape:cy="63.263983"
     inkscape:window-x="0"
     inkscape:window-y="0"
     inkscape:window-maximized="1"
     inkscape:current-layer="svg4190" />
  <path
     style="fill:#00aeef;fill-opacity:1"
     d="m 83.419773,177.08347 c -13.21137,-1.16284 -23.57405,-3.91101 -33.78723,-8.96032 C 31.849653,159.33144 17.787333,145.247 9.1132726,127.54013 -1.2643874,106.35561 -2.8172674,83.008613 4.6512226,60.454633 15.402283,27.987673 43.428063,5.12744 78.223083,0.44309 80.033263,0.199391 84.710293,0 88.616473,0 c 3.90618,0 8.5832,0.199391 10.39338,0.44309 16.584167,2.232678 31.418477,8.367383 44.305357,18.322413 3.82358,2.95368 12.05543,11.18668 14.99152,14.99361 14.88358,19.298 21.18013,42.46279 18.09354,66.565457 -1.15151,8.99191 -4.13433,18.82166 -8.25854,27.21556 -13.10267,26.6676 -38.61926,45.03862 -67.88189,48.87252 -4.120307,0.53983 -13.901547,0.92946 -16.840067,0.67082 z m 15.93653,-3.26565 c 19.473567,-2.74896 36.374847,-11.08615 49.888237,-24.60925 13.65261,-13.66241 21.88609,-30.50092 24.66554,-50.444127 0.56859,-4.07972 0.55564,-16.43213 -0.0216,-20.62836 C 171.20417,58.623063 162.7528,41.383243 149.24456,27.865293 129.89478,8.501613 102.47959,-0.550718 75.724973,3.589584 c -27.80059,4.302159 -51.86458,22.039519 -64.21311,47.330939 -5.4063004,11.07282 -8.1783004,22.0893 -8.6800104,34.49616 -0.82652,20.438727 6.00634,40.849157 19.1505704,57.204677 13.59052,16.91085 34.932,28.74123 56.24068,31.17631 1.81018,0.20686 3.83689,0.43979 4.5038,0.51762 2.07369,0.24201 13.89638,-0.11167 16.62942,-0.49747 z m -16.62942,-1.60793 c -12.35656,-1.18498 -21.09396,-3.55694 -31.00693,-8.4175 -17.04184,-8.35602 -29.955,-21.27846 -38.30492,-38.33243 -5.9127204,-12.0762 -8.4476404,-23.15585 -8.4476404,-36.923027 0,-13.75819 2.63218,-25.25647 8.4809004,-37.04751 4.5077,-9.08753 8.89541,-15.22015 15.91672,-22.24651 7.02132,-7.02636 13.14954,-11.41723 22.23055,-15.92816 11.78256,-5.85292 23.27259,-8.486989 37.02091,-8.486989 13.757317,0 24.829047,2.53675 36.896507,8.453719 17.04184,8.35602 29.955,21.27845 38.30492,38.33243 7.81422,15.95985 10.33888,33.43649 7.38729,51.137517 -3.28036,19.67259 -14.08996,38.20959 -29.69487,50.92266 -8.77707,7.15055 -20.69557,13.18933 -31.50398,15.96222 -8.78896,2.2548 -19.785577,3.29223 -27.279457,2.57358 z m 6.81061,-25.43089 c 18.914537,-22.95023 33.512667,-45.62402 38.375587,-59.604867 2.0291,-5.83365 2.4363,-8.01095 2.4035,-12.85169 -0.079,-11.66539 -4.87814,-22.61174 -13.5472,-30.90006 -6.38987,-6.10923 -14.41183,-10.09923 -23.292237,-11.58521 -5.37248,-0.89899 -12.31616,-0.56768 -17.85241,0.85179 -14.35161,3.67971 -26.20326,14.81747 -30.81667,28.96041 -2.25781,6.92161 -2.68647,14.73625 -1.1334,20.66269 2.86257,10.92338 10.52769,24.988647 23.60871,43.321247 6.1281,8.58832 18.81292,24.69785 19.30932,24.52256 0.12547,-0.0443 1.45063,-1.5639 2.9448,-3.37687 z m -7.5035,-55.315987 c -6.79802,-1.46637 -12.20788,-6.41457 -14.57027,-13.32693 -1.14607,-3.35342 -1.08426,-8.58892 0.14316,-12.12523 4.86318,-14.01133 22.28477,-18.02015 32.616507,-7.50528 7.64035,7.77579 7.64035,19.6976 0,27.47339 -4.898027,4.98485 -11.406547,6.94715 -18.189397,5.48405 z"
     id="path4220"
     inkscape:connector-curvature="0" />
</svg>
